<svg xmlns="http://www.w3.org/2000/svg" width="70" height="70" viewBox="0 0 70 70">
    <g fill="none">
        <path fill="#937DE2" d="M64.085 37.958C64.085 55.655 49.737 70 32.042 70c-4.341 0-8.48-.863-12.254-2.428C9.47 63.3 1.872 53.792.3 42.362c-.2-1.44-.301-2.91-.301-4.404C0 20.261 14.345 5.915 32.042 5.915c17.695 0 32.043 14.346 32.043 32.043z"/>
        <path fill="#7570D6" d="M31.66 5.915c-1.715 0-3.398.133-5.04.386 15.514 2.393 27.386 15.654 27.386 31.657 0 16.002-11.87 29.262-27.384 31.656 1.642.253 3.323.386 5.037.386 17.907 0 32.426-14.345 32.426-32.042 0-17.697-14.519-32.043-32.426-32.043z"/>
        <path fill="#FDD7BD" d="M68.135 35.885L49.768 47.79c-1.309.849-2.894 1.185-4.443.943-1.553-.242-3.142.09-4.454.94l-2.458 1.595-13.765-19.863 3.377-14.281c.262-1.112.392-2.239.392-3.361 0-2.904-.867-5.77-2.531-8.23-.41-.606-.605-1.29-.605-1.966 0-1.155.573-2.288 1.631-2.974 1.426-.925 3.316-.753 4.543.412l2.189 2.075c2.502 2.376 4.432 5.27 5.644 8.47l1.186 3.126L52.69 6.774c1.952-1.264 4.591-.711 5.837 1.245 1.202 1.885.585 4.375-1.308 5.602-.023.014-.025.038-.017.056.01.02.034.033.059.023.483-.182.988-.27 1.489-.27.8 0 1.592.225 2.27.654.467.296.881.689 1.208 1.172.63.932.818 2.026.612 3.043-.324 1.601-1.513 2.427-1.747 2.582-.04.027-.05.08-.022.121l.002.003c.026.036.08.046.118.023.333-.08.672-.117 1.01-.117.828 0 1.65.23 2.35.667.474.296.892.687 1.216 1.167 1.27 1.877.745 4.407-1.175 5.65l-.141.093c-.028.021-.036.055-.022.08.003.005.01.012.016.014.02.017.054.018.082-.002 1.192-.398 2.49-.217 3.534.445.481.302.907.709 1.245 1.207 1.27 1.879.745 4.409-1.172 5.653z"/>
        <path fill="#87DBFF" d="M38.548 54.512l-7.76 5.128-11.2 7.402C9.217 62.755 1.578 53.22 0 41.755l13-8.591 7.913-5.23c.911-.603 2.14-.352 2.744.559l15.45 23.28c.604.91.354 2.135-.56 2.74z"/>
        <path fill="#6FC7FF" d="M38.542 55.249l-7.813 4.892-17.912-25.26 7.968-4.99c.917-.575 2.155-.336 2.763.533l15.557 22.21c.608.87.356 2.038-.563 2.615z"/>
        <g fill="#FAC5AA">
            <path d="M8.963.751L2.69 3.988c-.89.457-1.993.218-2.59-.563L5.044.341c.01.02.034.033.06.022C5.601.18 6.12.09 6.633.09c.821 0 1.634.228 2.33.661zM12.586 8.326L6.452 11.49c-.89.46-1.993.221-2.592-.56l4.944-3.085.214-.097c.027.037.081.047.12.023.342-.08.69-.118 1.038-.118.849 0 1.693.233 2.41.674zM16.188 15.853l-5.403 2.788c-.889.457-1.991.219-2.592-.562l4.284-2.673c.022.017.056.019.084-.003 1.224-.401 2.556-.219 3.627.45z" transform="translate(52.254 12.817)"/>
        </g>
    </g>
</svg>
